<?xml version="1.0" encoding="utf-8"?>
<!-- Generator: Adobe Illustrator 27.5.0, SVG Export Plug-In . SVG Version: 6.00 Build 0)  -->
<svg version="1.1" xmlns="http://www.w3.org/2000/svg" xmlns:xlink="http://www.w3.org/1999/xlink" x="0px" y="0px"
	 viewBox="40 180 230 120" style="enable-background:new 0 0 300 300;" xml:space="preserve">
<defs>
    <filter id="neon" x="-50%" y="-50%" width="200%" height="200%">
        <feGaussianBlur stdDeviation="3.5" result="coloredBlur"/>
        <feMerge>
            <feMergeNode in="coloredBlur"/>
            <feMergeNode in="SourceGraphic"/>
        </feMerge>
    </filter>
</defs>
<g id="BACKGROUND">
</g>

<g id="OBJECTS">
	<g>
		<g style="opacity:0.1;">
			<g>
				<defs>
					<path id="XMLID_125_" d="M135.567,205.512c-1.581-2.484-18.163-8.637-23.256-10.386c-5.092-1.749-17.15-1.294-21.709,0
						c-4.558,1.293-20.738,7.901-22.318,10.386c-1.581,2.483-13.772,30.48-13.772,31.835c0,1.355,16.03,10.386,16.933,10.16
						c0.904-0.226,3.839-8.353,4.742-7.901c0.904,0.452-0.678,49.448,0,50.8c0.677,1.353,23.708,1.595,25.738,1.595
						c2.031,0,25.062-0.241,25.739-1.595c0.679-1.353-0.902-50.349,0-50.8c0.903-0.452,3.839,7.675,4.742,7.901
						c0.903,0.226,16.933-8.804,16.933-10.16C149.338,235.992,137.147,207.995,135.567,205.512z"/> 
				</defs>
				<clipPath id="XMLID_00000012461594324837351490000002041533255785792436_">
					<use xlink:href="#XMLID_125_"  style="overflow:visible;"/>
				</clipPath>
			</g>
			<g>
				<defs>
					<path id="XMLID_119_" d="M135.567,205.512c-1.581-2.484-18.163-8.637-23.256-10.386c-5.092-1.749-17.15-1.294-21.709,0
						c-4.558,1.293-20.738,7.901-22.318,10.386c-1.581,2.483-13.772,30.48-13.772,31.835c0,1.355,16.03,10.386,16.933,10.16
						c0.904-0.226,3.839-8.353,4.742-7.901c0.904,0.452-0.678,49.448,0,50.8c0.677,1.353,23.708,1.595,25.738,1.595
						c2.031,0,25.062-0.241,25.739-1.595c0.679-1.353-0.902-50.349,0-50.8c0.903-0.452,3.839,7.675,4.742,7.901
						c0.903,0.226,16.933-8.804,16.933-10.16C149.338,235.992,137.147,207.995,135.567,205.512z"/>
				</defs>
				<clipPath id="XMLID_00000067223111460510333420000010735916758613480852_">
					<use xlink:href="#XMLID_119_"  style="overflow:visible;"/>
				</clipPath>
				<path id="XMLID_123_" style="clip-path:url(#XMLID_00000067223111460510333420000010735916758613480852_);" d="M135.567,205.512
					c-1.581-2.484-18.163-8.637-23.256-10.386c-5.092-1.749-17.15-1.294-21.709,0c-4.558,1.293-20.738,7.901-22.318,10.386
					c-1.581,2.483-13.772,30.48-13.772,31.835c0,1.355,16.03,10.386,16.933,10.16c0.904-0.226,3.839-8.353,4.742-7.901
					c0.904,0.452-0.678,49.448,0,50.8c0.677,1.353,23.708,1.595,25.738,1.595c2.031,0,25.062-0.241,25.739-1.595
					c0.679-1.353-0.902-50.349,0-50.8c0.903-0.452,3.839,7.675,4.742,7.901c0.903,0.226,16.933-8.804,16.933-10.16
					C149.338,235.992,137.147,207.995,135.567,205.512z"/>
				<path style="opacity:0.1;clip-path:url(#XMLID_00000067223111460510333420000010735916758613480852_);" d="M64.671,200.77
					c9.257,10.387,16.481,36.577,7.225,54.188c-9.257,17.611-26.642-11.063-23.933-21.901
					C50.672,222.219,64.671,200.77,64.671,200.77z"/>
				<path style="opacity:0.1;clip-path:url(#XMLID_00000067223111460510333420000010735916758613480852_);" d="M52.93,232.619
					c4.29,4.064,19.643,12.403,22.126,12.855c2.484,0.452-4.063,4.967-4.063,4.967l-20.094-12.643L52.93,232.619z"/>
				<path style="opacity:0.1;clip-path:url(#XMLID_00000067223111460510333420000010735916758613480852_);" d="M138.72,200.77
					c-9.257,10.387-16.482,36.577-7.226,54.188c9.258,17.611,26.642-11.063,23.934-21.901
					C152.719,222.219,138.72,200.77,138.72,200.77z"/>
				<path style="opacity:0.1;clip-path:url(#XMLID_00000067223111460510333420000010735916758613480852_);" d="M150.461,232.619
					c-4.291,4.064-19.643,12.403-22.127,12.855c-2.482,0.452,4.064,4.967,4.064,4.967l20.094-12.643L150.461,232.619z"/>
				<path style="opacity:0.1;clip-path:url(#XMLID_00000067223111460510333420000010735916758613480852_);" d="M88.961,191.29
					c0,9.061,5.804,16.405,12.963,16.405c7.16,0,12.965-7.345,12.965-16.405c0-9.06-5.805-16.405-12.965-16.405
					C94.765,174.885,88.961,182.23,88.961,191.29z"/>
				<path style="opacity:0.1;clip-path:url(#XMLID_00000067223111460510333420000010735916758613480852_);" d="M91.566,191.367
					c0,7.239,4.638,13.108,10.358,13.108c5.722,0,10.359-5.869,10.359-13.108c0-7.24-4.638-13.108-10.359-13.108
					C96.204,178.258,91.566,184.126,91.566,191.367z"/>
				<path style="opacity:0.1;clip-path:url(#XMLID_00000067223111460510333420000010735916758613480852_);" d="M74.424,287.361
					c7.799,2.318,50.078,1.748,58.13-0.607c8.052-2.357-2.554,10.408-10.017,9.426c-7.462-0.981-46.74-2.861-49.293-4.18
					C70.692,290.682,67.158,285.201,74.424,287.361z"/>
			</g>
			<g>
				<defs>
					<path id="XMLID_117_" d="M135.567,205.512c-1.581-2.484-18.163-8.637-23.256-10.386c-5.092-1.749-17.15-1.294-21.709,0
						c-4.558,1.293-20.738,7.901-22.318,10.386c-1.581,2.483-13.772,30.48-13.772,31.835c0,1.355,16.03,10.386,16.933,10.16
						c0.904-0.226,3.839-8.353,4.742-7.901c0.904,0.452-0.678,49.448,0,50.8c0.677,1.353,23.708,1.595,25.738,1.595
						c2.031,0,25.062-0.241,25.739-1.595c0.679-1.353-0.902-50.349,0-50.8c0.903-0.452,3.839,7.675,4.742,7.901
						c0.903,0.226,16.933-8.804,16.933-10.16C149.338,235.992,137.147,207.995,135.567,205.512z"/>
				</defs>
				<clipPath id="XMLID_00000063627850454409805930000005988545212004921232_">
					<use xlink:href="#XMLID_117_"  style="overflow:visible;"/>
				</clipPath>
			</g>
		</g>
		<g>
			<g>
				<defs>
					<path id="XMLID_115_" d="M131.567,201.512c-1.581-2.484-18.163-8.637-23.256-10.386c-5.092-1.749-17.15-1.294-21.709,0
						c-4.558,1.293-20.738,7.901-22.318,10.386c-1.581,2.483-13.772,30.48-13.772,31.835c0,1.355,16.03,10.386,16.933,10.16
						c0.904-0.226,3.839-8.353,4.742-7.901c0.904,0.452-0.678,49.448,0,50.8C72.863,287.759,95.894,288,97.924,288
						c2.031,0,25.062-0.241,25.739-1.595c0.679-1.353-0.902-50.349,0-50.8c0.903-0.452,3.839,7.675,4.742,7.901
						c0.903,0.226,16.933-8.804,16.933-10.16C145.338,231.992,133.147,203.995,131.567,201.512z"/>
				</defs>
				<clipPath id="XMLID_00000014592528325063369180000015781164079798551432_">
					<use xlink:href="#XMLID_115_"  style="overflow:visible;"/>
				</clipPath>
			</g>
			<g>
				<defs>
					<path id="XMLID_102_" d="M131.567,201.512c-1.581-2.484-18.163-8.637-23.256-10.386c-5.092-1.749-17.15-1.294-21.709,0
						c-4.558,1.293-20.738,7.901-22.318,10.386c-1.581,2.483-13.772,30.48-13.772,31.835c0,1.355,16.03,10.386,16.933,10.16
						c0.904-0.226,3.839-8.353,4.742-7.901c0.904,0.452-0.678,49.448,0,50.8C72.863,287.759,95.894,288,97.924,288
						c2.031,0,25.062-0.241,25.739-1.595c0.679-1.353-0.902-50.349,0-50.8c0.903-0.452,3.839,7.675,4.742,7.901
						c0.903,0.226,16.933-8.804,16.933-10.16C145.338,231.992,133.147,203.995,131.567,201.512z"/>
				</defs>
				<clipPath id="XMLID_00000031924428005459211030000017252074840776059824_">
					<use xlink:href="#XMLID_102_"  style="overflow:visible;"/>
				</clipPath>
				<path id="XMLID_108_" style="clip-path:url(#XMLID_00000031924428005459211030000017252074840776059824_);fill:#ECCB19;" d="
					M131.567,201.512c-1.581-2.484-18.163-8.637-23.256-10.386c-5.092-1.749-17.15-1.294-21.709,0
					c-4.558,1.293-20.738,7.901-22.318,10.386c-1.581,2.483-13.772,30.48-13.772,31.835c0,1.355,16.03,10.386,16.933,10.16
					c0.904-0.226,3.839-8.353,4.742-7.901c0.904,0.452-0.678,49.448,0,50.8C72.863,287.759,95.894,288,97.924,288
					c2.031,0,25.062-0.241,25.739-1.595c0.679-1.353-0.902-50.349,0-50.8c0.903-0.452,3.839,7.675,4.742,7.901
					c0.903,0.226,16.933-8.804,16.933-10.16C145.338,231.992,133.147,203.995,131.567,201.512z"/>
				<path style="opacity:0.1;clip-path:url(#XMLID_00000031924428005459211030000017252074840776059824_);" d="M60.671,196.77
					c9.257,10.387,16.481,36.577,7.225,54.188c-9.257,17.611-26.642-11.064-23.933-21.901
					C46.672,218.219,60.671,196.77,60.671,196.77z"/>
				<path style="opacity:0.1;clip-path:url(#XMLID_00000031924428005459211030000017252074840776059824_);" d="M48.93,228.619
					c4.29,4.064,19.643,12.403,22.126,12.855c2.484,0.452-4.063,4.967-4.063,4.967l-20.094-12.643L48.93,228.619z"/>
				<path style="opacity:0.1;clip-path:url(#XMLID_00000031924428005459211030000017252074840776059824_);" d="M134.72,196.77
					c-9.257,10.387-16.482,36.577-7.226,54.188c9.258,17.611,26.642-11.064,23.934-21.901
					C148.719,218.219,134.72,196.77,134.72,196.77z"/>
				<path style="opacity:0.1;clip-path:url(#XMLID_00000031924428005459211030000017252074840776059824_);" d="M146.461,228.619
					c-4.291,4.064-19.643,12.403-22.127,12.855c-2.482,0.452,4.064,4.967,4.064,4.967l20.094-12.643L146.461,228.619z"/>
				<path style="opacity:0.1;clip-path:url(#XMLID_00000031924428005459211030000017252074840776059824_);" d="M84.961,187.29
					c0,9.061,5.804,16.405,12.963,16.405c7.16,0,12.965-7.345,12.965-16.405c0-9.06-5.805-16.405-12.965-16.405
					C90.765,170.885,84.961,178.23,84.961,187.29z"/>
				<path style="opacity:0.1;clip-path:url(#XMLID_00000031924428005459211030000017252074840776059824_);" d="M87.566,187.367
					c0,7.239,4.638,13.108,10.358,13.108c5.722,0,10.359-5.869,10.359-13.108c0-7.24-4.638-13.108-10.359-13.108
					C92.204,174.258,87.566,180.126,87.566,187.367z"/>
				<path style="opacity:0.1;clip-path:url(#XMLID_00000031924428005459211030000017252074840776059824_);" d="M70.424,283.361
					c7.799,2.318,50.078,1.748,58.13-0.607c8.052-2.357-2.554,10.408-10.017,9.426c-7.462-0.981-46.74-2.861-49.293-4.18
					C66.692,286.682,63.158,281.201,70.424,283.361z"/>
			</g>
			<g>
				<defs>
					<path id="XMLID_91_" d="M131.567,201.512c-1.581-2.484-18.163-8.637-23.256-10.386c-5.092-1.749-17.15-1.294-21.709,0
						c-4.558,1.293-20.738,7.901-22.318,10.386c-1.581,2.483-13.772,30.48-13.772,31.835c0,1.355,16.03,10.386,16.933,10.16
						c0.904-0.226,3.839-8.353,4.742-7.901c0.904,0.452-0.678,49.448,0,50.8C72.863,287.759,95.894,288,97.924,288
						c2.031,0,25.062-0.241,25.739-1.595c0.679-1.353-0.902-50.349,0-50.8c0.903-0.452,3.839,7.675,4.742,7.901
						c0.903,0.226,16.933-8.804,16.933-10.16C145.338,231.992,133.147,203.995,131.567,201.512z"/>
				</defs>
				<clipPath id="XMLID_00000057112627435576850710000006433145735501512076_">
					<use xlink:href="#XMLID_91_"  style="overflow:visible;"/>
				</clipPath>
			</g>
		</g>
	</g>
	<g>
		<g style="opacity:0.1;">
			<g>
				<defs>
					<path id="XMLID_133_" d="M233.604,205.512c-1.58-2.484-18.163-8.637-23.255-10.386c-5.093-1.749-17.151-1.294-21.71,0
						c-4.557,1.293-20.737,7.901-22.318,10.386c-1.581,2.483-13.773,30.48-13.773,31.835c0,1.355,16.03,10.386,16.934,10.16
						c0.903-0.226,3.839-8.353,4.741-7.901c0.904,0.452-0.678,49.448,0,50.8c0.678,1.353,23.709,1.595,25.739,1.595
						c2.03,0,25.061-0.241,25.739-1.595c0.678-1.353-0.902-50.349,0-50.8c0.902-0.452,3.838,7.675,4.742,7.901
						c0.902,0.226,16.933-8.804,16.933-10.16C247.376,235.992,235.185,207.995,233.604,205.512z"/>
				</defs>
				<clipPath id="XMLID_00000023964468041833564340000012506952031258185396_">
					<use xlink:href="#XMLID_133_"  style="overflow:visible;"/>
				</clipPath>
			</g>
			<g>
				<defs>
					<path id="XMLID_127_" d="M233.604,205.512c-1.58-2.484-18.163-8.637-23.255-10.386c-5.093-1.749-17.151-1.294-21.71,0
						c-4.557,1.293-20.737,7.901-22.318,10.386c-1.581,2.483-13.773,30.48-13.773,31.835c0,1.355,16.03,10.386,16.934,10.16
						c0.903-0.226,3.839-8.353,4.741-7.901c0.904,0.452-0.678,49.448,0,50.8c0.678,1.353,23.709,1.595,25.739,1.595
						c2.03,0,25.061-0.241,25.739-1.595c0.678-1.353-0.902-50.349,0-50.8c0.902-0.452,3.838,7.675,4.742,7.901
						c0.902,0.226,16.933-8.804,16.933-10.16C247.376,235.992,235.185,207.995,233.604,205.512z"/>
				</defs>
				<clipPath id="XMLID_00000124152973106317285980000016495761026481875352_">
					<use xlink:href="#XMLID_127_"  style="overflow:visible;"/>
				</clipPath>
				<path id="XMLID_131_" style="clip-path:url(#XMLID_00000124152973106317285980000016495761026481875352_);" d="M233.604,205.512
					c-1.58-2.484-18.163-8.637-23.255-10.386c-5.093-1.749-17.151-1.294-21.71,0c-4.557,1.293-20.737,7.901-22.318,10.386
					c-1.581,2.483-13.773,30.48-13.773,31.835c0,1.355,16.03,10.386,16.934,10.16c0.903-0.226,3.839-8.353,4.741-7.901
					c0.904,0.452-0.678,49.448,0,50.8c0.678,1.353,23.709,1.595,25.739,1.595c2.03,0,25.061-0.241,25.739-1.595
					c0.678-1.353-0.902-50.349,0-50.8c0.902-0.452,3.838,7.675,4.742,7.901c0.902,0.226,16.933-8.804,16.933-10.16
					C247.376,235.992,235.185,207.995,233.604,205.512z"/>
				<path style="opacity:0.1;clip-path:url(#XMLID_00000124152973106317285980000016495761026481875352_);" d="M162.71,200.77
					c9.256,10.387,16.48,36.577,7.225,54.188c-9.258,17.611-26.642-11.063-23.934-21.901
					C148.71,222.219,162.71,200.77,162.71,200.77z"/>
				<path style="opacity:0.1;clip-path:url(#XMLID_00000124152973106317285980000016495761026481875352_);" d="M150.967,232.619
					c4.291,4.064,19.643,12.403,22.127,12.855c2.484,0.452-4.064,4.967-4.064,4.967l-20.094-12.643L150.967,232.619z"/>
				<path style="opacity:0.1;clip-path:url(#XMLID_00000124152973106317285980000016495761026481875352_);" d="M236.758,200.77
					c-9.258,10.387-16.482,36.577-7.226,54.188c9.257,17.611,26.641-11.063,23.932-21.901
					C250.756,222.219,236.758,200.77,236.758,200.77z"/>
				<path style="opacity:0.1;clip-path:url(#XMLID_00000124152973106317285980000016495761026481875352_);" d="M248.498,232.619
					c-4.291,4.064-19.642,12.403-22.126,12.855c-2.483,0.452,4.063,4.967,4.063,4.967l20.094-12.643L248.498,232.619z"/>
				<path style="opacity:0.1;clip-path:url(#XMLID_00000124152973106317285980000016495761026481875352_);" d="M172.907,287.361
					c7.799,2.318,50.078,1.748,58.13-0.607c8.052-2.357-2.554,10.408-10.017,9.426c-7.462-0.981-46.74-2.861-49.293-4.18
					C169.174,290.682,165.64,285.201,172.907,287.361z"/>
			</g>
			<g>
				<defs>
					<path id="XMLID_124_" d="M233.604,205.512c-1.58-2.484-18.163-8.637-23.255-10.386c-5.093-1.749-17.151-1.294-21.71,0
						c-4.557,1.293-20.737,7.901-22.318,10.386c-1.581,2.483-13.773,30.48-13.773,31.835c0,1.355,16.03,10.386,16.934,10.16
						c0.903-0.226,3.839-8.353,4.741-7.901c0.904,0.452-0.678,49.448,0,50.8c0.678,1.353,23.709,1.595,25.739,1.595
						c2.03,0,25.061-0.241,25.739-1.595c0.678-1.353-0.902-50.349,0-50.8c0.902-0.452,3.838,7.675,4.742,7.901
						c0.902,0.226,16.933-8.804,16.933-10.16C247.376,235.992,235.185,207.995,233.604,205.512z"/>
				</defs>
				<clipPath id="XMLID_00000069360399349120924230000003185670280386673312_">
					<use xlink:href="#XMLID_124_"  style="overflow:visible;"/>
				</clipPath>
			</g>
		</g>
		<g>
			<g>
				<defs>
					<path id="XMLID_122_" d="M229.604,201.512c-1.58-2.484-18.163-8.637-23.255-10.386c-5.093-1.749-17.151-1.294-21.71,0
						c-4.557,1.293-20.737,7.901-22.318,10.386c-1.581,2.483-13.773,30.48-13.773,31.835c0,1.355,16.03,10.386,16.934,10.16
						c0.903-0.226,3.839-8.353,4.741-7.901c0.904,0.452-0.678,49.448,0,50.8c0.678,1.353,23.709,1.595,25.739,1.595
						c2.03,0,25.061-0.241,25.739-1.595c0.678-1.353-0.902-50.349,0-50.8c0.902-0.452,3.838,7.675,4.742,7.901
						c0.902,0.226,16.933-8.804,16.933-10.16C243.376,231.992,231.185,203.995,229.604,201.512z"/>
				</defs>
				<clipPath id="XMLID_00000089572127848637400110000007396731441605034923_">
					<use xlink:href="#XMLID_122_"  style="overflow:visible;"/>
				</clipPath>
			</g>
			<g>
				<defs>
					<path id="XMLID_92_" d="M229.604,201.512c-1.58-2.484-18.163-8.637-23.255-10.386c-5.093-1.749-17.151-1.294-21.71,0
						c-4.557,1.293-20.737,7.901-22.318,10.386c-1.581,2.483-13.773,30.48-13.773,31.835c0,1.355,16.03,10.386,16.934,10.16
						c0.903-0.226,3.839-8.353,4.741-7.901c0.904,0.452-0.678,49.448,0,50.8c0.678,1.353,23.709,1.595,25.739,1.595
						c2.03,0,25.061-0.241,25.739-1.595c0.678-1.353-0.902-50.349,0-50.8c0.902-0.452,3.838,7.675,4.742,7.901
						c0.902,0.226,16.933-8.804,16.933-10.16C243.376,231.992,231.185,203.995,229.604,201.512z"/>
				</defs>
				<clipPath id="XMLID_00000026847391656495333650000013186690725916291743_">
					<use xlink:href="#XMLID_92_"  style="overflow:visible;"/>
				</clipPath>
				<path id="XMLID_93_" style="clip-path:url(#XMLID_00000026847391656495333650000013186690725916291743_);fill:#ECCB19;" d="
					M229.604,201.512c-1.58-2.484-18.163-8.637-23.255-10.386c-5.093-1.749-17.151-1.294-21.71,0
					c-4.557,1.293-20.737,7.901-22.318,10.386c-1.581,2.483-13.773,30.48-13.773,31.835c0,1.355,16.03,10.386,16.934,10.16
					c0.903-0.226,3.839-8.353,4.741-7.901c0.904,0.452-0.678,49.448,0,50.8c0.678,1.353,23.709,1.595,25.739,1.595
					c2.03,0,25.061-0.241,25.739-1.595c0.678-1.353-0.902-50.349,0-50.8c0.902-0.452,3.838,7.675,4.742,7.901
					c0.902,0.226,16.933-8.804,16.933-10.16C243.376,231.992,231.185,203.995,229.604,201.512z"/>
				<path style="opacity:0.1;clip-path:url(#XMLID_00000026847391656495333650000013186690725916291743_);" d="M158.71,196.77
					c9.256,10.387,16.48,36.577,7.225,54.188c-9.258,17.611-26.642-11.064-23.934-21.901
					C144.71,218.219,158.71,196.77,158.71,196.77z"/>
				<path style="opacity:0.1;clip-path:url(#XMLID_00000026847391656495333650000013186690725916291743_);" d="M146.967,228.619
					c4.291,4.064,19.643,12.403,22.127,12.855c2.484,0.452-4.064,4.967-4.064,4.967l-20.094-12.643L146.967,228.619z"/>
				<path style="opacity:0.1;clip-path:url(#XMLID_00000026847391656495333650000013186690725916291743_);" d="M232.758,196.77
					c-9.258,10.387-16.482,36.577-7.226,54.188c9.257,17.611,26.641-11.064,23.933-21.901
					C246.756,218.219,232.758,196.77,232.758,196.77z"/>
				<path style="opacity:0.1;clip-path:url(#XMLID_00000026847391656495333650000013186690725916291743_);" d="M244.498,228.619
					c-4.291,4.064-19.642,12.403-22.126,12.855c-2.483,0.452,4.063,4.967,4.063,4.967l20.094-12.643L244.498,228.619z"/>
				<path style="opacity:0.1;clip-path:url(#XMLID_00000026847391656495333650000013186690725916291743_);" d="M168.907,283.361
					c7.799,2.318,50.078,1.748,58.13-0.607c8.052-2.357-2.554,10.408-10.017,9.426c-7.462-0.981-46.74-2.861-49.293-4.18
					C165.174,286.682,161.64,281.201,168.907,283.361z"/>
			</g>
			<g>
				<defs>
					<path id="XMLID_90_" d="M229.604,201.512c-1.58-2.484-18.163-8.637-23.255-10.386c-5.093-1.749-17.151-1.294-21.71,0
						c-4.557,1.293-20.737,7.901-22.318,10.386c-1.581,2.483-13.773,30.48-13.773,31.835c0,1.355,16.03,10.386,16.934,10.16
						c0.903-0.226,3.839-8.353,4.741-7.901c0.904,0.452-0.678,49.448,0,50.8c0.678,1.353,23.709,1.595,25.739,1.595
						c2.03,0,25.061-0.241,25.739-1.595c0.678-1.353-0.902-50.349,0-50.8c0.902-0.452,3.838,7.675,4.742,7.901
						c0.902,0.226,16.933-8.804,16.933-10.16C243.376,231.992,231.185,203.995,229.604,201.512z"/>
				</defs>
				<clipPath id="XMLID_00000150818491041734898540000005933629603963666855_">
					<use xlink:href="#XMLID_90_"  style="overflow:visible;"/>
				</clipPath>
			</g>
		</g>
        <!-- Text for the first t-shirt -->
        <!-- Text for the first t-shirt -->
        <text transform="translate(98 220)" fill="#000251" stroke="#000251" font-size="10" font-family="Helvetica, Arial, sans-serif" text-anchor="middle">PENSATI</text>
        <text transform="translate(98 230)" fill="#000251" stroke="#000251" font-size="10" font-family="Helvetica, Arial, sans-serif" text-anchor="middle">MENO</text>
        <!-- Text for the second t-shirt -->
        <text transform="translate(196 220)" fill="#000251" stroke="#000251" font-size="10" font-family="Helvetica, Arial, sans-serif" text-anchor="middle">PENSATI</text>
        <text transform="translate(191 230)" fill="#000251" stroke="#000251" font-size="10" font-family="Helvetica, Arial, sans-serif" text-anchor="middle">MEN</text>
        <text transform="translate(207 230)" fill="#00FFFF" stroke="#000251" stroke-opacity="1" font-size="10" font-family="Helvetica, Arial, sans-serif" text-anchor="middle" filter="url(#neon)">O
<animate attributeName="opacity" values="1;0;1;0;1;0;1;0.5;1;0" keyTimes="0;0.05;0.1;0.2;0.3;0.5;0.55;0.65;0.8;1" dur="0.01s" repeatCount="indefinite" />
        </text>
	</g>
</g>
</svg>
